{"accessors":[{"bufferView":0,"byteOffset":0,"componentType":5126,"count":564,"max":[0.25,0.25,0.25],"min":[-0.25,-0.25,-0.25],"normalized":false,"type":"VEC3"},{"bufferView":1,"byteOffset":0,"componentType":5126,"count":564,"max":[0.866142,0.866142,0.992126,1],"min":[-0.992126,-0.866142,-0.866142,-1],"normalized":false,"type":"VEC4"},{"bufferView":2,"byteOffset":0,"componentType":5126,"count":564,"max":[0.983755,0.983755,0.983755],"min":[-0.983755,-0.983755,-0.983755],"normalized":false,"type":"VEC3"},{"bufferView":3,"byteOffset":0,"componentType":5126,"count":564,"max":[1,0.549805],"min":[0,0],"normalized":false,"type":"VEC2"},{"bufferView":4,"byteOffset":0,"componentType":5125,"count":564,"max":[563],"min":[0],"normalized":false,"type":"SCALAR"}],"asset":{"generator":"Godot Engine v3.5.1.stable.official@6fed1ffa313c6760fa88b368ae580378daaef0f0","version":"2.0"},"bufferViews":[{"buffer":0,"byteLength":6768,"byteOffset":0},{"buffer":0,"byteLength":9024,"byteOffset":6768},{"buffer":0,"byteLength":6768,"byteOffset":15792},{"buffer":0,"byteLength":4512,"byteOffset":22560},{"buffer":0,"byteLength":2256,"byteOffset":27072}],"buffers":[{"byteLength":29328,"uri":"cube0.bin"}],"extensionsRequired":["KHR_texture_transform"],"extensionsUsed":["KHR_lights_punctual","KHR_texture_transform"],"images":[{"uri":"textures/_albedo.png"}],"materials":[{"pbrMetallicRoughness":{"baseColorFactor":[1,1,1,1],"baseColorTexture":{"extensions":{"KHR_texture_transform":{"offset":[0,0],"scale":[1,1]}},"index":0},"metallicFactor":0,"roughnessFactor":1}}],"meshes":[{"extras":{"targetNames":[]},"primitives":[{"attributes":{"NORMAL":2,"POSITION":0,"TANGENT":1,"TEXCOORD_0":3},"indices":4,"material":0,"mode":4}]}],"nodes":[{"extensions":{},"mesh":0,"name":"BeepCube"}],"scene":0,"scenes":[{"nodes":[0]}],"textures":[{"source":0}]}