# Blender 3.6.0
# www.blender.org
mtllib endpathb.mtl
o Plane
v -20.026340 5.686446 0.027027
v 0.000301 -0.000063 0.951525
v -20.026340 5.686446 -0.027027
v 0.000301 -0.000063 -0.951525
v -19.829815 5.350368 0.030353
v -19.314754 4.736468 0.043040
v -18.282421 3.796968 0.073276
v -16.225319 2.409334 0.131637
v -13.843925 1.486136 0.206351
v -11.607807 0.917768 0.301668
v -9.425962 0.588494 0.422411
v -7.692005 0.358034 0.527195
v -6.153544 0.188100 0.618624
v -4.615083 0.065436 0.709127
v -3.076621 0.004228 0.800910
v -1.538160 -0.000063 0.885218
v -1.538160 -0.000063 -0.885218
v -3.076622 0.004228 -0.800909
v -4.615084 0.065436 -0.709127
v -6.153545 0.188100 -0.618625
v -7.692007 0.358034 -0.527195
v -9.425963 0.588494 -0.422412
v -11.607810 0.917768 -0.301668
v -13.843926 1.486136 -0.206351
v -16.225323 2.409335 -0.131637
v -18.282421 3.796968 -0.073276
v -19.314754 4.736468 -0.043040
v -19.829815 5.350368 -0.030353
v -20.024967 5.701330 0.027029
v 0.000301 0.025693 0.951526
v -20.024967 5.701330 -0.027030
v 0.000301 0.025693 -0.951526
v -19.829670 5.364805 0.030356
v -19.314720 4.751802 0.043042
v -18.282372 3.817147 0.073279
v -16.225285 2.434173 0.131640
v -13.843925 1.512208 0.206353
v -11.607807 0.943619 0.301670
v -9.425962 0.614245 0.422415
v -7.692005 0.383786 0.527198
v -6.153544 0.213853 0.618627
v -4.615083 0.091190 0.709129
v -3.076621 0.029984 0.800911
v -1.538160 0.025693 0.885220
v -1.538160 0.025693 -0.885220
v -3.076622 0.029984 -0.800911
v -4.615084 0.091190 -0.709129
v -6.153545 0.213854 -0.618627
v -7.692007 0.383787 -0.527198
v -9.425963 0.614246 -0.422415
v -11.607810 0.943619 -0.301671
v -13.843926 1.512209 -0.206353
v -16.225285 2.434174 -0.131640
v -18.282372 3.817147 -0.073279
v -19.314720 4.751802 -0.043043
v -19.829670 5.364805 -0.030356
v -20.024963 5.701320 0.025140
v 0.000301 0.025693 0.884889
v -20.024963 5.701320 -0.025140
v 0.000301 0.025693 -0.884889
v -19.829670 5.364849 0.028233
v -19.314732 4.751870 0.040031
v -18.282421 3.817314 0.068148
v -16.225372 2.434370 0.122414
v -13.843925 1.512330 0.191883
v -11.607807 0.943745 0.280506
v -9.425962 0.614396 0.392771
v -7.692005 0.383963 0.490210
v -6.153544 0.214025 0.575249
v -4.615083 0.091320 0.659421
v -3.076621 0.030025 0.744786
v -1.538160 0.025693 0.823205
v -1.538160 0.025693 -0.823205
v -3.076622 0.030025 -0.744786
v -4.615084 0.091320 -0.659422
v -6.153545 0.214026 -0.575249
v -7.692007 0.383964 -0.490210
v -9.425963 0.614396 -0.392772
v -11.607810 0.943746 -0.280507
v -13.843926 1.512330 -0.191883
v -16.225376 2.434371 -0.122414
v -18.282421 3.817314 -0.068148
v -19.314732 4.751870 -0.040032
v -19.829670 5.364849 -0.028234
vn 0.0014 1.0000 -0.0000
vn -0.0000 1.0000 -0.0000
vn 0.8632 0.5048 -0.0000
vn 0.8172 0.5764 -0.0000
vn 0.7206 0.6933 -0.0000
vn 0.6169 0.7870 -0.0000
vn 0.4616 0.8871 -0.0000
vn 0.3032 0.9529 -0.0000
vn 0.1965 0.9805 -0.0000
vn 0.1402 0.9901 -0.0000
vn 0.1204 0.9927 -0.0000
vn 0.0941 0.9956 -0.0000
vn 0.0589 0.9983 -0.0000
vn 0.0206 0.9998 -0.0000
vn 0.2462 0.9692 0.0067
vn 0.3607 0.9326 -0.0112
vn 0.0028 1.0000 -0.0004
vn 0.1490 0.9888 0.0054
vn 0.5576 0.8300 -0.0156
vn 0.8649 0.5020 -0.0050
vn 0.0397 0.9992 -0.0016
vn 0.1315 0.9913 0.0049
vn 0.6708 0.7415 -0.0164
vn 0.8649 0.5020 0.0050
vn 0.0793 0.9968 -0.0032
vn 0.1095 0.9940 0.0043
vn 0.7655 0.6433 -0.0123
vn 0.7655 0.6433 0.0123
vn 0.1095 0.9940 -0.0043
vn 0.0793 0.9968 0.0032
vn 0.6708 0.7414 0.0164
vn 0.1315 0.9913 -0.0049
vn 0.0397 0.9992 0.0016
vn 0.5576 0.8300 0.0157
vn 0.1490 0.9888 -0.0054
vn 0.0028 1.0000 0.0004
vn 0.3607 0.9326 0.0112
vn 0.2462 0.9692 -0.0067
vt 0.917178 0.005757
vt 0.993028 0.005757
vt 0.993028 0.994244
vt 0.917178 0.994244
vt 0.006972 0.005757
vt 0.031964 0.005757
vt 0.031964 0.994244
vt 0.006972 0.994244
vt 0.070401 0.005757
vt 0.070401 0.994244
vt 0.130011 0.005757
vt 0.130011 0.994244
vt 0.211002 0.005757
vt 0.211002 0.994244
vt 0.310469 0.005757
vt 0.310469 0.994244
vt 0.420716 0.005757
vt 0.420716 0.994244
vt 0.528287 0.005757
vt 0.528287 0.994244
vt 0.613776 0.005757
vt 0.613776 0.994244
vt 0.689626 0.005757
vt 0.689626 0.994244
vt 0.765477 0.005757
vt 0.765477 0.994244
vt 0.841327 0.005757
vt 0.841327 0.994244
vt 0.000000 0.000000
s 1
usemtl Material.001
f 16/1/1 2/2/2 4/3/2 17/4/1
f 1/5/3 5/6/4 28/7/4 3/8/3
f 5/6/4 6/9/5 27/10/5 28/7/4
f 6/9/5 7/11/6 26/12/6 27/10/5
f 7/11/6 8/13/7 25/14/7 26/12/6
f 8/13/7 9/15/8 24/16/8 25/14/7
f 9/15/8 10/17/9 23/18/9 24/16/8
f 10/17/9 11/19/10 22/20/10 23/18/9
f 11/19/10 12/21/11 21/22/11 22/20/10
f 12/21/11 13/23/12 20/24/12 21/22/11
f 13/23/12 14/25/13 19/26/13 20/24/12
f 14/25/13 15/27/14 18/28/14 19/26/13
f 15/27/14 16/1/1 17/4/1 18/28/14
s 0
usemtl Material.002
f 32/29/2 45/29/2 73/29/2 60/29/2
f 37/29/15 38/29/15 66/29/15 65/29/15
f 52/29/16 53/29/16 81/29/16 80/29/16
f 44/29/2 30/29/2 58/29/2 72/29/2
f 45/29/17 46/29/17 74/29/17 73/29/17
f 38/29/18 39/29/18 67/29/18 66/29/18
f 53/29/19 54/29/19 82/29/19 81/29/19
f 56/29/20 31/29/20 59/29/20 84/29/20
f 46/29/21 47/29/21 75/29/21 74/29/21
f 39/29/22 40/29/22 68/29/22 67/29/22
f 54/29/23 55/29/23 83/29/23 82/29/23
f 29/29/24 33/29/24 61/29/24 57/29/24
f 47/29/25 48/29/25 76/29/25 75/29/25
f 40/29/26 41/29/26 69/29/26 68/29/26
f 55/29/27 56/29/27 84/29/27 83/29/27
f 33/29/28 34/29/28 62/29/28 61/29/28
f 48/29/29 49/29/29 77/29/29 76/29/29
f 41/29/30 42/29/30 70/29/30 69/29/30
f 34/29/31 35/29/31 63/29/31 62/29/31
f 49/29/32 50/29/32 78/29/32 77/29/32
f 42/29/33 43/29/33 71/29/33 70/29/33
f 35/29/34 36/29/34 64/29/34 63/29/34
f 50/29/35 51/29/35 79/29/35 78/29/35
f 43/29/36 44/29/36 72/29/36 71/29/36
f 36/29/37 37/29/37 65/29/37 64/29/37
f 51/29/38 52/29/38 80/29/38 79/29/38
